<mxfile host="Electron" agent="Mozilla/5.0 (Windows NT 10.0; Win64; x64) AppleWebKit/537.36 (KHTML, like Gecko) draw.io/28.1.2 Chrome/138.0.7204.243 Electron/37.4.0 Safari/537.36" version="28.1.2">
  <diagram name="Page-1" id="mmKih0TYQPzNAhDS0tzM">
    <mxGraphModel dx="872" dy="563" grid="1" gridSize="10" guides="1" tooltips="1" connect="1" arrows="1" fold="1" page="1" pageScale="1" pageWidth="850" pageHeight="1100" math="0" shadow="0">
      <root>
        <mxCell id="0" />
        <mxCell id="1" parent="0" />
        <mxCell id="S2Ms9Og0hgurAdSnIN8M-14" style="edgeStyle=orthogonalEdgeStyle;rounded=0;orthogonalLoop=1;jettySize=auto;html=1;entryX=0;entryY=0.5;entryDx=0;entryDy=0;" edge="1" parent="1" source="S2Ms9Og0hgurAdSnIN8M-1" target="S2Ms9Og0hgurAdSnIN8M-2">
          <mxGeometry relative="1" as="geometry" />
        </mxCell>
        <mxCell id="S2Ms9Og0hgurAdSnIN8M-1" value="&lt;font style=&quot;font-size: 17px;&quot;&gt;LOGIN&lt;/font&gt;" style="rounded=0;whiteSpace=wrap;html=1;" vertex="1" parent="1">
          <mxGeometry x="70" y="80" width="120" height="60" as="geometry" />
        </mxCell>
        <mxCell id="S2Ms9Og0hgurAdSnIN8M-15" style="edgeStyle=orthogonalEdgeStyle;rounded=0;orthogonalLoop=1;jettySize=auto;html=1;entryX=0;entryY=0.5;entryDx=0;entryDy=0;" edge="1" parent="1" source="S2Ms9Og0hgurAdSnIN8M-2" target="S2Ms9Og0hgurAdSnIN8M-3">
          <mxGeometry relative="1" as="geometry" />
        </mxCell>
        <mxCell id="S2Ms9Og0hgurAdSnIN8M-2" value="&lt;span style=&quot;font-size: 17px;&quot;&gt;DASHBOARD&lt;/span&gt;" style="rounded=0;whiteSpace=wrap;html=1;" vertex="1" parent="1">
          <mxGeometry x="340" y="80" width="120" height="60" as="geometry" />
        </mxCell>
        <mxCell id="S2Ms9Og0hgurAdSnIN8M-17" style="edgeStyle=orthogonalEdgeStyle;rounded=0;orthogonalLoop=1;jettySize=auto;html=1;" edge="1" parent="1" source="S2Ms9Og0hgurAdSnIN8M-3" target="S2Ms9Og0hgurAdSnIN8M-4">
          <mxGeometry relative="1" as="geometry">
            <Array as="points">
              <mxPoint x="670" y="190" />
              <mxPoint x="130" y="190" />
            </Array>
          </mxGeometry>
        </mxCell>
        <mxCell id="S2Ms9Og0hgurAdSnIN8M-3" value="&lt;span style=&quot;font-size: 17px;&quot;&gt;GENERATE BARCODE&lt;/span&gt;" style="rounded=0;whiteSpace=wrap;html=1;" vertex="1" parent="1">
          <mxGeometry x="610" y="80" width="120" height="60" as="geometry" />
        </mxCell>
        <mxCell id="S2Ms9Og0hgurAdSnIN8M-18" style="edgeStyle=orthogonalEdgeStyle;rounded=0;orthogonalLoop=1;jettySize=auto;html=1;entryX=0;entryY=0.5;entryDx=0;entryDy=0;" edge="1" parent="1" source="S2Ms9Og0hgurAdSnIN8M-4" target="S2Ms9Og0hgurAdSnIN8M-5">
          <mxGeometry relative="1" as="geometry" />
        </mxCell>
        <mxCell id="S2Ms9Og0hgurAdSnIN8M-4" value="&lt;span style=&quot;font-size: 17px;&quot;&gt;SCAN BARCODE&lt;/span&gt;" style="rounded=0;whiteSpace=wrap;html=1;" vertex="1" parent="1">
          <mxGeometry x="70" y="240" width="120" height="60" as="geometry" />
        </mxCell>
        <mxCell id="S2Ms9Og0hgurAdSnIN8M-19" style="edgeStyle=orthogonalEdgeStyle;rounded=0;orthogonalLoop=1;jettySize=auto;html=1;entryX=0;entryY=0.5;entryDx=0;entryDy=0;" edge="1" parent="1" source="S2Ms9Og0hgurAdSnIN8M-5" target="S2Ms9Og0hgurAdSnIN8M-6">
          <mxGeometry relative="1" as="geometry" />
        </mxCell>
        <mxCell id="S2Ms9Og0hgurAdSnIN8M-21" style="edgeStyle=orthogonalEdgeStyle;rounded=0;orthogonalLoop=1;jettySize=auto;html=1;entryX=0.5;entryY=0;entryDx=0;entryDy=0;" edge="1" parent="1" source="S2Ms9Og0hgurAdSnIN8M-5" target="S2Ms9Og0hgurAdSnIN8M-2">
          <mxGeometry relative="1" as="geometry">
            <Array as="points">
              <mxPoint x="400" y="210" />
              <mxPoint x="760" y="210" />
              <mxPoint x="760" y="60" />
              <mxPoint x="400" y="60" />
            </Array>
          </mxGeometry>
        </mxCell>
        <mxCell id="S2Ms9Og0hgurAdSnIN8M-5" value="&lt;span style=&quot;font-size: 17px;&quot;&gt;RECORD ATTENDANCE&lt;/span&gt;" style="rounded=0;whiteSpace=wrap;html=1;" vertex="1" parent="1">
          <mxGeometry x="340" y="240" width="120" height="60" as="geometry" />
        </mxCell>
        <mxCell id="S2Ms9Og0hgurAdSnIN8M-6" value="&lt;span style=&quot;font-size: 17px;&quot;&gt;LOGOUT&lt;/span&gt;" style="rounded=0;whiteSpace=wrap;html=1;" vertex="1" parent="1">
          <mxGeometry x="610" y="240" width="120" height="60" as="geometry" />
        </mxCell>
        <mxCell id="S2Ms9Og0hgurAdSnIN8M-20" value="Admin credentials&amp;nbsp;" style="text;html=1;align=center;verticalAlign=middle;resizable=0;points=[];autosize=1;strokeColor=none;fillColor=none;" vertex="1" parent="1">
          <mxGeometry x="200" y="90" width="120" height="30" as="geometry" />
        </mxCell>
        <mxCell id="S2Ms9Og0hgurAdSnIN8M-22" value="Attendance records" style="text;html=1;align=center;verticalAlign=middle;resizable=0;points=[];autosize=1;strokeColor=none;fillColor=none;" vertex="1" parent="1">
          <mxGeometry x="460" y="88" width="130" height="30" as="geometry" />
        </mxCell>
        <mxCell id="S2Ms9Og0hgurAdSnIN8M-23" value="Student barcode generation" style="text;html=1;align=center;verticalAlign=middle;resizable=0;points=[];autosize=1;strokeColor=none;fillColor=none;" vertex="1" parent="1">
          <mxGeometry x="290" y="170" width="170" height="30" as="geometry" />
        </mxCell>
        <mxCell id="S2Ms9Og0hgurAdSnIN8M-25" value="Barcode Scanner" style="text;html=1;align=center;verticalAlign=middle;resizable=0;points=[];autosize=1;strokeColor=none;fillColor=none;" vertex="1" parent="1">
          <mxGeometry x="200" y="250" width="120" height="30" as="geometry" />
        </mxCell>
        <mxCell id="S2Ms9Og0hgurAdSnIN8M-26" value="End seasion" style="text;html=1;align=center;verticalAlign=middle;resizable=0;points=[];autosize=1;strokeColor=none;fillColor=none;" vertex="1" parent="1">
          <mxGeometry x="490" y="250" width="90" height="30" as="geometry" />
        </mxCell>
        <mxCell id="S2Ms9Og0hgurAdSnIN8M-28" value="Records student attendance" style="text;html=1;align=center;verticalAlign=middle;resizable=0;points=[];autosize=1;strokeColor=none;fillColor=none;" vertex="1" parent="1">
          <mxGeometry x="480" y="40" width="170" height="30" as="geometry" />
        </mxCell>
      </root>
    </mxGraphModel>
  </diagram>
</mxfile>
